<?xml version="1.0" encoding="UTF-8" standalone="no"?>
<!-- Created with Inkscape (http://www.inkscape.org/) -->
<svg
   xmlns:dc="http://purl.org/dc/elements/1.1/"
   xmlns:cc="http://creativecommons.org/ns#"
   xmlns:rdf="http://www.w3.org/1999/02/22-rdf-syntax-ns#"
   xmlns:svg="http://www.w3.org/2000/svg"
   xmlns="http://www.w3.org/2000/svg"
   xmlns:xlink="http://www.w3.org/1999/xlink"
   xmlns:sodipodi="http://sodipodi.sourceforge.net/DTD/sodipodi-0.dtd"
   xmlns:inkscape="http://www.inkscape.org/namespaces/inkscape"
   width="744.09448819"
   height="1052.3622047"
   id="svg2503"
   sodipodi:version="0.32"
   inkscape:version="0.46"
   sodipodi:docname="drawing2.svg"
   inkscape:output_extension="org.inkscape.output.svg.inkscape"
   inkscape:export-filename="/home/sasan/drawing2.png"
   inkscape:export-xdpi="90"
   inkscape:export-ydpi="90">
  <defs
     id="defs2505">
    <linearGradient
       inkscape:collect="always"
       id="linearGradient5763">
      <stop
         style="stop-color:#000000;stop-opacity:1;"
         offset="0"
         id="stop5765" />
      <stop
         style="stop-color:#000000;stop-opacity:0;"
         offset="1"
         id="stop5767" />
    </linearGradient>
    <linearGradient
       inkscape:collect="always"
       id="linearGradient5745">
      <stop
         style="stop-color:#000000;stop-opacity:1;"
         offset="0"
         id="stop5747" />
      <stop
         style="stop-color:#000000;stop-opacity:0;"
         offset="1"
         id="stop5749" />
    </linearGradient>
    <linearGradient
       inkscape:collect="always"
       id="linearGradient5735">
      <stop
         style="stop-color:#000000;stop-opacity:1;"
         offset="0"
         id="stop5737" />
      <stop
         style="stop-color:#000000;stop-opacity:0;"
         offset="1"
         id="stop5739" />
    </linearGradient>
    <linearGradient
       inkscape:collect="always"
       id="linearGradient5725">
      <stop
         style="stop-color:#000000;stop-opacity:1;"
         offset="0"
         id="stop5727" />
      <stop
         style="stop-color:#000000;stop-opacity:0;"
         offset="1"
         id="stop5729" />
    </linearGradient>
    <linearGradient
       inkscape:collect="always"
       id="linearGradient5651">
      <stop
         style="stop-color:#000000;stop-opacity:1;"
         offset="0"
         id="stop5653" />
      <stop
         style="stop-color:#000000;stop-opacity:0;"
         offset="1"
         id="stop5655" />
    </linearGradient>
    <inkscape:perspective
       sodipodi:type="inkscape:persp3d"
       inkscape:vp_x="0 : 526.18109 : 1"
       inkscape:vp_y="0 : 1000 : 0"
       inkscape:vp_z="744.09448 : 526.18109 : 1"
       inkscape:persp3d-origin="372.04724 : 350.78739 : 1"
       id="perspective2511" />
    <linearGradient
       inkscape:collect="always"
       xlink:href="#linearGradient5651"
       id="linearGradient5657"
       x1="401.11642"
       y1="152.63963"
       x2="502.27956"
       y2="152.63963"
       gradientUnits="userSpaceOnUse" />
    <linearGradient
       inkscape:collect="always"
       xlink:href="#linearGradient5725"
       id="linearGradient5731"
       x1="191.39646"
       y1="366.637"
       x2="268.5674"
       y2="366.637"
       gradientUnits="userSpaceOnUse" />
    <linearGradient
       inkscape:collect="always"
       xlink:href="#linearGradient5735"
       id="linearGradient5741"
       x1="201.22391"
       y1="112.93808"
       x2="256.70171"
       y2="112.93808"
       gradientUnits="userSpaceOnUse" />
    <linearGradient
       inkscape:collect="always"
       xlink:href="#linearGradient5745"
       id="linearGradient5751"
       x1="226.04284"
       y1="123.0298"
       x2="296.13418"
       y2="123.0298"
       gradientUnits="userSpaceOnUse" />
    <linearGradient
       inkscape:collect="always"
       xlink:href="#linearGradient5763"
       id="linearGradient5769"
       x1="213.15202"
       y1="897.56018"
       x2="305.39478"
       y2="897.56018"
       gradientUnits="userSpaceOnUse" />
  </defs>
  <sodipodi:namedview
     id="base"
     pagecolor="#ffffff"
     bordercolor="#666666"
     borderopacity="1.0"
     gridtolerance="10000"
     guidetolerance="10"
     objecttolerance="10"
     inkscape:pageopacity="0.0"
     inkscape:pageshadow="2"
     inkscape:zoom="0.35"
     inkscape:cx="677.15243"
     inkscape:cy="515.387"
     inkscape:document-units="px"
     inkscape:current-layer="layer1"
     showgrid="false"
     inkscape:window-width="691"
     inkscape:window-height="721"
     inkscape:window-x="585"
     inkscape:window-y="50" />
  <metadata
     id="metadata2508">
    <rdf:RDF>
      <cc:Work
         rdf:about="">
        <dc:format>image/svg+xml</dc:format>
        <dc:type
           rdf:resource="http://purl.org/dc/dcmitype/StillImage" />
      </cc:Work>
    </rdf:RDF>
  </metadata>
  <g
     inkscape:label="Layer 1"
     inkscape:groupmode="layer"
     id="layer1">
    <rect
       style="opacity:1;fill:#00ffff;fill-opacity:0;fill-rule:nonzero;stroke:#000000;stroke-width:1.11839628;stroke-linecap:butt;stroke-linejoin:miter;marker:none;marker-start:none;marker-mid:none;marker-end:none;stroke-miterlimit:4;stroke-dasharray:none;stroke-dashoffset:0;stroke-opacity:1;visibility:visible;display:inline;overflow:visible;enable-background:accumulate"
       id="rect2383"
       width="511.31018"
       height="228.45303"
       x="32.916332"
       y="18.56423" />
    <rect
       style="opacity:1;fill:#00ffff;fill-opacity:0;fill-rule:nonzero;stroke:#000000;stroke-width:1.01074839;stroke-linecap:butt;stroke-linejoin:miter;marker:none;marker-start:none;marker-mid:none;marker-end:none;stroke-miterlimit:4;stroke-dasharray:none;stroke-dashoffset:0;stroke-opacity:1;visibility:visible;display:inline;overflow:visible;enable-background:accumulate"
       id="rect2385"
       width="431.41782"
       height="237.1321"
       x="35.719654"
       y="258.51041" />
    <rect
       style="opacity:1;fill:#00ffff;fill-opacity:0;fill-rule:nonzero;stroke:#000000;stroke-width:0.96581292;stroke-linecap:butt;stroke-linejoin:miter;marker:none;marker-start:none;marker-mid:none;marker-end:none;stroke-miterlimit:4;stroke-dasharray:none;stroke-dashoffset:0;stroke-opacity:1;visibility:visible;display:inline;overflow:visible;enable-background:accumulate"
       id="rect2387"
       width="420.03418"
       height="237.17705"
       x="41.41148"
       y="533.9165" />
    <rect
       style="opacity:1;fill:#00ffff;fill-opacity:0;fill-rule:nonzero;stroke:#000000;stroke-width:1.08316565;stroke-linecap:butt;stroke-linejoin:miter;marker:none;marker-start:none;marker-mid:none;marker-end:none;stroke-miterlimit:4;stroke-dasharray:none;stroke-dashoffset:0;stroke-opacity:1;visibility:visible;display:inline;overflow:visible;enable-background:accumulate"
       id="rect2389"
       width="417.05969"
       height="217.05969"
       x="40.61301"
       y="794.83234" />
    <path
       sodipodi:type="arc"
       style="opacity:1;fill:#4d4d4d;fill-opacity:0;stroke:#000080"
       id="path2395"
       sodipodi:cx="228.57143"
       sodipodi:cy="402.36218"
       sodipodi:rx="91.428574"
       sodipodi:ry="84.285713"
       d="M 320,402.36218 A 91.428574,84.285713 0 1 1 137.14285,402.36218 A 91.428574,84.285713 0 1 1 320,402.36218 z"
       transform="matrix(1.1400142,0,0,1.0840831,-20.574663,-66.260453)" />
    <path
       sodipodi:type="arc"
       style="opacity:1;fill:#4d4d4d;fill-opacity:0;stroke:#000080"
       id="path2397"
       sodipodi:cx="228.57143"
       sodipodi:cy="395.21933"
       sodipodi:rx="40"
       sodipodi:ry="31.428572"
       d="M 268.57143,395.21933 A 40,31.428572 0 1 1 188.57143,395.21933 A 40,31.428572 0 1 1 268.57143,395.21933 z"
       transform="matrix(0.9965589,0,0,1.631984,2.2151171,-277.91514)" />
    <path
       sodipodi:type="arc"
       style="opacity:1;fill:#4d4d4d;fill-opacity:0;stroke:#000080"
       id="path2405"
       sodipodi:cx="237.14285"
       sodipodi:cy="949.50507"
       sodipodi:rx="68.571426"
       sodipodi:ry="54.285713"
       d="M 305.71428,949.50507 A 68.571426,54.285713 0 1 1 168.57143,949.50507 A 68.571426,54.285713 0 1 1 305.71428,949.50507 z"
       transform="matrix(0.999362,0,0,1.1834046,-68.134423,-225.71505)" />
    <path
       sodipodi:type="arc"
       style="opacity:1;fill:#4d4d4d;fill-opacity:0;stroke:#000080"
       id="path2407"
       sodipodi:cx="402.85715"
       sodipodi:cy="960.93359"
       sodipodi:rx="74.285713"
       sodipodi:ry="77.14286"
       d="M 477.14286,960.93359 A 74.285713,77.14286 0 1 1 328.57143,960.93359 A 74.285713,77.14286 0 1 1 477.14286,960.93359 z"
       transform="matrix(0.8473518,0,0,0.7974498,-98.092696,130.75978)" />
    <path
       sodipodi:type="arc"
       style="opacity:1;fill:#4d4d4d;fill-opacity:0;stroke:#000080"
       id="path2409"
       sodipodi:cx="197.14285"
       sodipodi:cy="678.07648"
       sodipodi:rx="57.142857"
       sodipodi:ry="65.714287"
       d="M 254.28571,678.07648 A 57.142857,65.714287 0 1 1 140,678.07648 A 57.142857,65.714287 0 1 1 254.28571,678.07648 z"
       transform="matrix(1.1493718,0,0,0.9994537,-33.733303,-42.058163)" />
    <path
       sodipodi:type="arc"
       style="opacity:1;fill:#4d4d4d;fill-opacity:0;stroke:#000080"
       id="path2411"
       sodipodi:cx="317.14285"
       sodipodi:cy="735.2193"
       sodipodi:rx="65.714287"
       sodipodi:ry="77.14286"
       d="M 382.85714,735.2193 A 65.714287,77.14286 0 1 1 251.42857,735.2193 A 65.714287,77.14286 0 1 1 382.85714,735.2193 z"
       transform="matrix(1.0005821,0,0,0.8523477,-29.898903,13.556807)" />
    <path
       sodipodi:type="arc"
       style="opacity:1;fill:#4d4d4d;fill-opacity:0;stroke:#000080"
       id="path2413"
       sodipodi:cx="285.71429"
       sodipodi:cy="758.07648"
       sodipodi:rx="71.428574"
       sodipodi:ry="57.142857"
       d="M 357.14287,758.07648 A 71.428574,57.142857 0 1 1 214.28572,758.07648 A 71.428574,57.142857 0 1 1 357.14287,758.07648 z"
       transform="translate(-45.428573,-65.285713)" />
    <path
       sodipodi:type="arc"
       style="opacity:1;fill:#4d4d4d;fill-opacity:0;stroke:#000080"
       id="path2415"
       sodipodi:cx="120"
       sodipodi:cy="98.076469"
       sodipodi:rx="71.428574"
       sodipodi:ry="77.14286"
       d="M 191.42857,98.076469 A 71.428574,77.14286 0 1 1 48.571426,98.076469 A 71.428574,77.14286 0 1 1 191.42857,98.076469 z"
       transform="matrix(1.0008095,0,0,0.6491066,66.437504,29.960817)" />
    <path
       sodipodi:type="arc"
       style="opacity:1;fill:#4d4d4d;fill-opacity:0;stroke:#000080"
       id="path2417"
       sodipodi:cx="140"
       sodipodi:cy="6.6478968"
       sodipodi:rx="74.285713"
       sodipodi:ry="88.571426"
       d="M 214.28571,6.6478968 A 74.285713,88.571426 0 1 1 65.714287,6.6478968 A 74.285713,88.571426 0 1 1 214.28571,6.6478968 z"
       transform="matrix(0.9052402,0,0,0.5866822,140.72939,93.06096)" />
    <text
       xml:space="preserve"
       style="font-size:40px;font-style:normal;font-weight:normal;fill:#000000;fill-opacity:1;stroke:none;stroke-width:1px;stroke-linecap:butt;stroke-linejoin:miter;stroke-opacity:1;font-family:Bitstream Vera Sans"
       x="95.714279"
       y="75.647896"
       id="text2419"><tspan
         sodipodi:role="line"
         id="tspan2421"
         x="95.714279"
         y="75.647896">A</tspan></text>
    <text
       xml:space="preserve"
       style="font-size:40px;font-style:normal;font-weight:normal;fill:#000000;fill-opacity:1;stroke:none;stroke-width:1px;stroke-linecap:butt;stroke-linejoin:miter;stroke-opacity:1;font-family:Bitstream Vera Sans"
       x="341.42856"
       y="67.076477"
       id="text2423"><tspan
         sodipodi:role="line"
         id="tspan2425"
         x="341.42856"
         y="67.076477">B</tspan></text>
    <text
       xml:space="preserve"
       style="font-size:40px;font-style:normal;font-weight:normal;fill:#000000;fill-opacity:1;stroke:none;stroke-width:1px;stroke-linecap:butt;stroke-linejoin:miter;stroke-opacity:1;font-family:Bitstream Vera Sans"
       x="284.28571"
       y="352.79077"
       id="text2427"><tspan
         sodipodi:role="line"
         id="tspan2429"
         x="284.28571"
         y="352.79077">C</tspan></text>
    <text
       xml:space="preserve"
       style="font-size:40px;font-style:normal;font-weight:normal;fill:#000000;fill-opacity:1;stroke:none;stroke-width:1px;stroke-linecap:butt;stroke-linejoin:miter;stroke-opacity:1;font-family:Bitstream Vera Sans"
       x="104.28571"
       y="335.64792"
       id="text2431"><tspan
         sodipodi:role="line"
         id="tspan2433"
         x="104.28571"
         y="335.64792">A</tspan></text>
    <text
       xml:space="preserve"
       style="font-size:40px;font-style:normal;font-weight:normal;fill:#000000;fill-opacity:1;stroke:none;stroke-width:1px;stroke-linecap:butt;stroke-linejoin:miter;stroke-opacity:1;font-family:Bitstream Vera Sans"
       x="121.42857"
       y="572.79077"
       id="text2435"><tspan
         sodipodi:role="line"
         id="tspan2437"
         x="121.42857"
         y="572.79077">A</tspan></text>
    <text
       xml:space="preserve"
       style="font-size:40px;font-style:normal;font-weight:normal;fill:#000000;fill-opacity:1;stroke:none;stroke-width:1px;stroke-linecap:butt;stroke-linejoin:miter;stroke-opacity:1;font-family:Bitstream Vera Sans"
       x="358.57144"
       y="595.64795"
       id="text2439"><tspan
         sodipodi:role="line"
         id="tspan2441"
         x="358.57144"
         y="595.64795">B</tspan></text>
    <text
       xml:space="preserve"
       style="font-size:40px;font-style:normal;font-weight:normal;fill:#000000;fill-opacity:1;stroke:none;stroke-width:1px;stroke-linecap:butt;stroke-linejoin:miter;stroke-opacity:1;font-family:Bitstream Vera Sans"
       x="324.28574"
       y="724.21936"
       id="text2443"><tspan
         sodipodi:role="line"
         id="tspan2445"
         x="324.28574"
         y="724.21936">C</tspan></text>
    <text
       xml:space="preserve"
       style="font-size:40px;font-style:normal;font-weight:normal;fill:#000000;fill-opacity:1;stroke:none;stroke-width:1px;stroke-linecap:butt;stroke-linejoin:miter;stroke-opacity:1;font-family:Bitstream Vera Sans"
       x="87.142853"
       y="840.79077"
       id="text2447"><tspan
         sodipodi:role="line"
         id="tspan2449"
         x="87.142853"
         y="840.79077">A</tspan></text>
    <text
       xml:space="preserve"
       style="font-size:40px;font-style:normal;font-weight:normal;fill:#000000;fill-opacity:1;stroke:none;stroke-width:1px;stroke-linecap:butt;stroke-linejoin:miter;stroke-opacity:1;font-family:Bitstream Vera Sans"
       x="341.51266"
       y="845.40277"
       id="text2451"><tspan
         sodipodi:role="line"
         id="tspan2453"
         x="341.51266"
         y="845.40277">B</tspan></text>
    <path
       style="opacity:1;fill:#4d4d4d;fill-opacity:0;stroke:#000080;stroke-width:2.85714293"
       d="M 180.14286,697.81118 C 164.53231,693.21013 175.66037,663.01935 197.93883,649.53021 C 215.8326,638.69595 219.17694,638.9083 221.13977,651.00353 C 222.1026,656.93653 225.58717,666.79547 228.88331,672.91235 C 233.73486,681.91581 234.15346,684.53715 231.081,686.67604 C 217.71006,695.98427 192.58146,701.47738 180.14286,697.81121 L 180.14286,697.81118 z"
       id="path2564" />
    <path
       style="opacity:1;fill:#4d4d4d;fill-opacity:0;stroke:#000080;stroke-width:2.85714293"
       d="M 183.95589,695.26461 C 176.04009,694.0481 173.80643,688.0981 177.54763,678.19453 C 182.56383,664.91578 203.88751,646.07647 213.90111,646.07647 C 216.43994,646.07647 230.1792,682.85595 228.24974,684.48735 C 220.81434,690.77415 195.23489,696.99795 183.95586,695.26461 L 183.95589,695.26461 z"
       id="path2566" />
    <path
       style="opacity:1;fill:#4d4d4d;fill-opacity:0;stroke:#000080;stroke-width:2.85714293"
       d="M 180.14286,684.23975 C 180.14286,679.01764 184.42306,672.40853 194.0204,662.81115 C 201.65303,655.17847 209.18891,648.93361 210.76674,648.93361 C 214.5848,648.93361 226.65737,680.77398 223.80209,683.31301 C 219.36466,687.25895 201.9076,691.79075 191.14509,691.79075 C 181.15557,691.79075 180.14286,691.09573 180.14286,684.23973 L 180.14286,684.23975 z"
       id="path2568" />
    <path
       style="opacity:1;fill:#4d4d4d;fill-opacity:0;stroke:#000080;stroke-width:2.85714293"
       d="M 183,684.89361 C 183,682.26667 189.09366,673.60275 196.54149,665.64044 L 210.08294,651.1635 L 215.03797,662.19141 C 224.06437,682.28055 222.5832,684.4189 197.32051,687.7701 C 185.08471,689.39324 183,688.9745 183,684.89358 L 183,684.89361 z"
       id="path2570" />
    <path
       style="opacity:1;fill:#4d4d4d;fill-opacity:0;stroke:#000080;stroke-width:2.85714293"
       d=""
       id="path2572" />
    <path
       style="opacity:1;fill:#4d4d4d;fill-opacity:0;stroke:#000080;stroke-width:2.85714293"
       d=""
       id="path2574" />
    <path
       style="opacity:1;fill:#4d4d4d;fill-opacity:0;stroke:#000080;stroke-width:2.85714293"
       d="M 187.59657,682.50504 C 192.08743,674.78158 206.45034,657.50504 208.3804,657.50504 C 210.23446,657.50504 217.28571,673.96087 217.28571,678.28787 C 217.28571,680.42821 198.09057,686.03773 190.68851,686.06053 C 187.34871,686.07084 186.25469,684.81278 187.59654,682.50504 L 187.59657,682.50504 z"
       id="path2576" />
    <path
       style="opacity:1;fill:#4d4d4d;fill-opacity:0;stroke:#000080;stroke-width:2.85714293"
       d="M 194.01414,678.27941 C 195.5224,675.46118 199.42277,670.74238 202.6816,667.79318 C 208.50909,662.51938 208.64906,662.5435 211.16994,669.25373 C 213.98623,676.75021 212.41246,678.37058 199.2788,681.49721 C 192.21657,683.17853 191.5954,682.79884 194.01414,678.27938 L 194.01414,678.27941 z"
       id="path2578" />
    <path
       style="opacity:1;fill:#4d4d4d;fill-opacity:0;stroke:#000080;stroke-width:2.85714293"
       d=""
       id="path2580" />
    <path
       style="opacity:1;fill:#4d4d4d;fill-opacity:0;stroke:#000080;stroke-width:2.85714293"
       d=""
       id="path2582" />
    <path
       style="opacity:1;fill:#4d4d4d;fill-opacity:0;stroke:#000080;stroke-width:2.85714293"
       d=""
       id="path2584" />
    <path
       style="opacity:1;fill:#4d4d4d;fill-opacity:0;stroke:#000080;stroke-width:2.85714293"
       d=""
       id="path2586" />
    <path
       style="opacity:1;fill:#4d4d4d;fill-opacity:0;stroke:#000080;stroke-width:2.85714293"
       d="M 203,686.15538 C 203,682.28241 208.07743,679.87738 209.92903,682.87333 C 210.81426,684.3057 209.61743,686.21493 207.26931,687.11598 C 204.9212,688.01704 203,687.58478 203,686.15541 L 203,686.15538 z"
       id="path2588" />
    <path
       style="opacity:1;fill:#4d4d4d;fill-opacity:0;stroke:#000080;stroke-width:2.85714293"
       d=""
       id="path2590" />
    <path
       style="opacity:1;fill:#4d4d4d;fill-opacity:0;stroke:#000080;stroke-width:2.85714293"
       d=""
       id="path2592" />
    <path
       style="opacity:1;fill:#4d4d4d;fill-opacity:0;stroke:#000080;stroke-width:2.85714293"
       d=""
       id="path2594" />
    <path
       style="opacity:1;fill:#4d4d4d;fill-opacity:0;stroke:#000080;stroke-width:2.85714293"
       d=""
       id="path2596" />
    <path
       style="opacity:1;fill:#4d4d4d;fill-opacity:0;stroke:#000080;stroke-width:2.85714293"
       d=""
       id="path2598" />
    <path
       style="opacity:1;fill:#4d4d4d;fill-opacity:0;stroke:#000080;stroke-width:2.85714293"
       d=""
       id="path2600" />
    <path
       style="opacity:1;fill:#4d4d4d;fill-opacity:0;stroke:#000080;stroke-width:2.85714293"
       d=""
       id="path2602" />
    <path
       style="opacity:1;fill:#4d4d4d;fill-opacity:0;stroke:#000080;stroke-width:2.85714293"
       d=""
       id="path2604" />
    <path
       style="opacity:1;fill:#4d4d4d;fill-opacity:0;stroke:#000080;stroke-width:2.85714293"
       d=""
       id="path2606" />
    <path
       style="opacity:1;fill:#4d4d4d;fill-opacity:0;stroke:#000080;stroke-width:2.85714293"
       d="M 205.85714,690.53081 C 205.85714,687.51515 211.34031,686.24821 212.9712,688.88701 C 213.9582,690.48404 212.76137,691.79075 210.31149,691.79075 C 207.8616,691.79075 205.85714,691.22378 205.85714,690.53081 z"
       id="path2608" />
    <path
       style="opacity:1;fill:#4d4d4d;fill-opacity:0;stroke:#000080;stroke-width:2.85714293"
       d="M 204.04266,688.30921 C 203.28371,687.08121 204.10023,686.07647 205.85714,686.07647 C 207.61406,686.07647 208.25691,684.79075 207.28571,683.21933 C 206.31451,681.6479 206.57223,680.36218 207.8584,680.36218 C 209.14454,680.36218 211.75094,682.85061 213.65034,685.89204 C 216.65691,690.70635 216.34806,691.36498 211.2632,690.98195 C 208.05089,690.73998 204.80163,689.53724 204.04269,688.30924 L 204.04266,688.30921 z"
       id="path2610" />
    <path
       style="opacity:1;fill:#4d4d4d;fill-opacity:0;stroke:#000080;stroke-width:2.85714293"
       d="M 204.58789,689.19144 C 203.70437,687.76184 203.78734,684.49204 204.77231,681.92524 C 206.41769,677.63755 206.99877,677.65255 211.92446,682.11024 C 214.87311,684.77875 217.28571,688.04855 217.28571,689.37644 C 217.28571,692.62387 206.6132,692.46844 204.58791,689.19144 L 204.58789,689.19144 z"
       id="path2612" />
    <path
       style="opacity:1;fill:#4d4d4d;fill-opacity:0;stroke:#000080;stroke-width:2.85714293"
       d=""
       id="path2614" />
    <path
       style="opacity:1;fill:#4d4d4d;fill-opacity:0;stroke:#000080;stroke-width:2.85714293"
       d="M 202.10166,686.79075 C 205.3718,677.60213 206.39383,677.1051 211.85509,682.04744 C 219.50451,688.97007 218.6212,691.79075 208.80394,691.79075 C 201.953,691.79075 200.66434,690.82941 202.10166,686.79075 z"
       id="path2616" />
    <path
       style="opacity:1;fill:#4d4d4d;fill-opacity:0;stroke:#000080;stroke-width:2.85714293"
       d=""
       id="path2618" />
    <path
       style="opacity:1;fill:#4d4d4d;fill-opacity:0;stroke:#000080;stroke-width:2.85714293"
       d=""
       id="path2620" />
    <path
       style="opacity:1;fill:#4d4d4d;fill-opacity:0;stroke:#000080;stroke-width:2.85714293"
       d=""
       id="path2622" />
    <path
       style="opacity:1;fill:#4d4d4d;fill-opacity:0;stroke:#000080;stroke-width:2.85714293"
       d="M 200.71431,691.2193 C 196.73203,687.23707 196.07423,682.13335 199.84349,684.46287 C 201.2502,685.3323 203.13014,684.14413 204.02103,681.82253 C 205.96149,676.76578 213.28463,678.9743 215.733,685.35467 C 218.70831,693.10813 207.12591,697.63095 200.71429,691.21933 L 200.71431,691.2193 z"
       id="path2624" />
    <path
       style="opacity:1;fill:#4d4d4d;fill-opacity:0;stroke:#000080;stroke-width:2.85714293"
       d="M 200.85714,692.75564 C 195.42403,690.56335 196.5826,685.03298 203.36197,680.79918 C 208.4986,677.59133 210.10543,677.6717 213.75269,681.31893 C 222.04323,689.60944 212.98003,697.64735 200.85714,692.75567 L 200.85714,692.75564 z"
       id="path2626" />
    <path
       style="opacity:1;fill:#4d4d4d;fill-opacity:0;stroke:#000080;stroke-width:2.85714293"
       d=""
       id="path2628" />
    <path
       style="opacity:1;fill:#4d4d4d;fill-opacity:0;stroke:#000080;stroke-width:2.85714293"
       d="M 197.54111,688.21933 C 195.53097,682.87418 196.31606,681.37373 202.19951,679.31627 C 210.5598,676.39264 219.10311,682.93364 216.33751,690.14064 C 213.63634,697.1799 200.4022,695.82713 197.54114,688.21933 L 197.54111,688.21933 z"
       id="path2630" />
    <path
       style="opacity:1;fill:#4d4d4d;fill-opacity:0;stroke:#000080;stroke-width:2.85714293"
       d="M 200.58457,692.92147 C 192.29849,687.11761 192.82191,681.3849 201.84471,679.12033 C 214.71577,675.88993 223.09017,688.48324 212.01317,694.4115 C 208.21811,696.44253 205.01554,696.02498 200.5846,692.92144 L 200.58457,692.92147 z"
       id="path2636" />
    <path
       style="opacity:1;fill:#4d4d4d;fill-opacity:0;stroke:#000080;stroke-width:2.85714293"
       d="M 201.96677,673.21933 C 202.87131,670.86218 204.75951,668.93361 206.16283,668.93361 C 207.56611,668.93361 208.71429,670.86218 208.71429,673.21933 C 208.71429,675.57647 206.82606,677.50504 204.51823,677.50504 C 201.96229,677.50504 200.965,675.82993 201.96677,673.21933 z"
       id="path2638" />
    <path
       style="opacity:1;fill:#4d4d4d;fill-opacity:0;stroke:#000080;stroke-width:2.85714293"
       d="M 200.77857,693.05733 C 193.45109,687.92493 192.51617,681.70741 198.71429,679.32895 C 201.25206,678.35513 203.08191,673.86061 203.20083,668.30898 C 203.36477,660.65515 203.82374,659.98287 205.70043,664.6479 C 206.96474,667.79075 207.46737,671.28441 206.81734,672.41158 C 206.16731,673.53875 208.25674,676.09804 211.46057,678.09887 C 218.37043,682.4141 219.17563,693.3113 212.76631,695.77078 C 207.0382,697.96887 208.15017,698.22055 200.7786,693.05733 L 200.77857,693.05733 z"
       id="path2640" />
    <path
       style="opacity:1;fill:#4d4d4d;fill-opacity:0;stroke:#000080;stroke-width:2.85714293"
       d="M 223,633.57855 C 223,628.98327 232.54091,607.17387 237.07009,601.41593 L 242.69109,594.27001 L 248.21117,605.17324 C 251.24717,611.17001 254.63314,620.25504 255.73549,625.36218 L 257.73974,634.6479 L 240.36991,634.6479 C 230.81643,634.6479 223,634.1667 223,633.57855 z"
       id="path2642" />
    <path
       style="opacity:1;fill:#4d4d4d;fill-opacity:0;stroke:#000080;stroke-width:2.85714293"
       d="M 228.72169,624.62855 C 232.62029,614.37433 240.06037,600.36218 241.60646,600.36218 C 242.97714,600.36218 249.45377,614.90333 252.85229,625.61104 C 254.68589,631.38821 253.87511,631.79075 240.40611,631.79075 C 226.20829,631.79075 226.0382,631.68653 228.72166,624.6285 L 228.72169,624.62855 z"
       id="path2644" />
    <path
       style="opacity:1;fill:#4d4d4d;fill-opacity:0;stroke:#000080;stroke-width:2.85714293"
       d="M 231.57143,627.41321 C 231.57143,623.76901 240.34309,605.3243 241.5176,606.49881 C 242.23243,607.21364 244.80426,612.55395 247.23271,618.36607 L 251.64806,628.93361 L 241.6098,628.93361 C 236.08869,628.93361 231.57143,628.24947 231.57143,627.41327 L 231.57143,627.41321 z"
       id="path2648" />
    <path
       style="opacity:1;fill:#4d4d4d;fill-opacity:0;stroke:#000080;stroke-width:2.85714293"
       d="M 237.84254,618.85253 C 240.23023,613.61213 241.7704,612.6315 243.4518,615.2811 C 247.43966,621.56533 246.08254,626.07647 240.20411,626.07647 C 235.19414,626.07647 234.92551,625.25464 237.84251,618.85253 L 237.84254,618.85253 z"
       id="path2650" />
    <path
       style="opacity:1;fill:#4d4d4d;fill-opacity:0;stroke:#000080;stroke-width:2.85714293"
       d=""
       id="path2652" />
    <path
       style="opacity:1;fill:#4d4d4d;fill-opacity:0;stroke:#000080;stroke-width:2.85714293"
       d=""
       id="path2654" />
    <path
       style="opacity:1;fill:#4d4d4d;fill-opacity:0;stroke:#000080;stroke-width:2.85714293"
       d="M 248.71429,627.74315 C 248.71429,625.25504 250.75,623.21933 253.23809,623.21933 C 258.28357,623.21933 257.40491,629.37007 252.10714,631.13598 C 250.24109,631.75798 248.71429,630.23124 248.71429,627.74313 L 248.71429,627.74315 z"
       id="path2656" />
    <path
       style="opacity:1;fill:#4d4d4d;fill-opacity:0;stroke:#000080;stroke-width:2.85714293"
       d="M 225.85714,631.79075 C 225.85714,630.21933 228.42857,628.93361 231.57143,628.93361 C 234.71429,628.93361 237.28571,627.39075 237.28571,625.50504 C 237.28571,622.83841 238.04763,622.83838 240.71429,625.50504 C 244.75646,629.54727 248.71429,629.98315 248.71429,626.38621 C 248.71429,624.98515 245.31403,622.98538 241.15817,621.94233 C 236.33026,620.73064 234.59243,619.05547 236.34511,617.30278 C 239.8582,613.78975 257.9984,622.50981 256.50394,626.99321 C 254.49443,633.02178 225.85714,637.50473 225.85714,631.79075 z"
       id="path2658" />
    <path
       sodipodi:type="arc"
       style="opacity:1;fill:#4d4d4d;fill-opacity:0;stroke:#000080"
       id="path2660"
       sodipodi:cx="265.71429"
       sodipodi:cy="192.36218"
       sodipodi:rx="68.571426"
       sodipodi:ry="60"
       d="M 334.28572,192.36218 A 68.571426,60 0 1 1 197.14287,192.36218 A 68.571426,60 0 1 1 334.28572,192.36218 z"
       transform="translate(-37.142857,-42.857143)" />
    <text
       xml:space="preserve"
       style="font-size:40px;font-style:normal;font-weight:normal;fill:#000000;fill-opacity:1;stroke:none;stroke-width:1px;stroke-linecap:butt;stroke-linejoin:miter;stroke-opacity:1;font-family:Bitstream Vera Sans"
       x="300"
       y="186.6479"
       id="text2662"><tspan
         sodipodi:role="line"
         id="tspan2664"
         x="300"
         y="186.6479">C</tspan></text>
    <path
       sodipodi:type="arc"
       style="opacity:1;fill:#4d4d4d;fill-opacity:0;stroke:#000080"
       id="path2666"
       sodipodi:cx="500"
       sodipodi:cy="175.21933"
       sodipodi:rx="54.285713"
       sodipodi:ry="65.714287"
       d="M 554.28571,175.21933 A 54.285713,65.714287 0 1 1 445.71429,175.21933 A 54.285713,65.714287 0 1 1 554.28571,175.21933 z"
       transform="translate(-48.571429,-22.857143)" />
    <text
       xml:space="preserve"
       style="font-size:40px;font-style:normal;font-weight:normal;fill:#000000;fill-opacity:1;stroke:none;stroke-width:1px;stroke-linecap:butt;stroke-linejoin:miter;stroke-opacity:1;font-family:Bitstream Vera Sans"
       x="491.42859"
       y="83.790756"
       id="text2668"><tspan
         sodipodi:role="line"
         id="tspan2670"
         x="491.42859"
         y="83.790756">D</tspan></text>
    <text
       xml:space="preserve"
       style="font-size:40px;font-style:normal;font-weight:normal;fill:#000000;fill-opacity:1;stroke:none;stroke-width:1px;stroke-linecap:butt;stroke-linejoin:miter;stroke-opacity:1;font-family:Bitstream Vera Sans"
       x="625.71429"
       y="115.21933"
       id="text2672"><tspan
         sodipodi:role="line"
         id="tspan2674"
         x="625.71429"
         y="115.21933" /></text>
    <path
       style="opacity:1;fill:#000000;fill-opacity:0;stroke:#000080;stroke-width:2.85714293000000019"
       d="M 429.35974,209.34753 C 415.81911,201.07421 408.82469,191.9299 403.06954,174.97661 C 397.3734,158.19704 397.24897,149.1899 402.47343,131.8303 C 410.50417,105.14621 428.4732,89.600268 451.28571,89.600268 C 478.76626,89.600268 499.86977,112.35687 503.31117,145.70104 C 508.26857,193.73344 464.89729,231.06104 429.35974,209.34755 L 429.35974,209.34753 z"
       id="path5623" />
    <path
       style="opacity:1;fill:url(#linearGradient5657);fill-opacity:1;stroke:#000080;stroke-width:2.02030515999999993"
       d="M 433.40366,208.11283 C 399.10116,191.01919 391.28915,138.01064 418.60703,107.70995 C 442.47002,81.241404 480.16383,89.70226 495.59623,124.99121 C 509.75665,157.37163 496.44969,195.85006 466.34522,209.5733 C 455.16756,214.6687 445.71892,214.24979 433.40368,208.11285 L 433.40366,208.11283 z"
       id="path5649" />
    <path
       style="opacity:1;fill:url(#linearGradient5731);fill-opacity:1;stroke:#000080;stroke-width:2.02030515999999993"
       d="M 217.38635,413.86156 C 202.58487,405.26431 193.95776,390.49748 192.58785,371.41452 C 190.86356,347.39501 201.56873,326.83655 219.33315,320.05225 C 231.26938,315.49375 240.74604,317.4207 250.72387,326.43508 C 262.4741,337.05071 267.55725,349.15199 267.55725,366.50987 C 267.55725,394.35181 253.22488,414.03381 231.88781,415.49307 C 226.13435,415.88655 219.60868,415.15237 217.38635,413.86156 z"
       id="path5723" />
    <path
       style="opacity:1;fill:url(#linearGradient5741);fill-opacity:1;stroke:#000080;stroke-width:2.02030515999999993"
       d="M 215.8891,127.58529 C 207.04818,118.3548 202.23406,109.05124 202.23406,101.19619 C 202.23406,95.631544 202.96446,95.045716 212.43502,93.014642 C 218.04555,91.811409 225.2739,90.826935 228.49803,90.826935 C 235.90079,90.826935 254.45115,94.750428 255.56432,96.55157 C 256.02559,97.297911 255.19262,101.42931 253.71327,105.73244 C 250.51196,115.04445 240.39134,126.10183 230.31369,131.29787 L 223.03799,135.04923 L 215.8891,127.58529 z"
       id="path5733" />
    <path
       style="opacity:1;fill:url(#linearGradient5751);fill-opacity:1;stroke:#000080;stroke-width:2.02030515999999993"
       d="M 245.67062,144.57693 C 241.22595,143.17534 234.92213,140.62307 231.66217,138.90517 C 225.73803,135.78333 225.7374,135.7809 230.44103,134.28802 C 237.97376,131.89721 251.76487,117.92254 255.84263,108.54828 C 257.9073,103.80182 259.78807,99.62399 260.02202,99.264254 C 261.11409,97.585158 272.68957,105.41905 279.4002,112.3787 C 286.2858,119.51987 295.01887,135.18857 295.12373,140.58966 C 295.2407,146.6156 260.91303,149.38334 245.67062,144.57691 L 245.67062,144.57693 z"
       id="path5743" />
    <path
       style="opacity:1;fill:url(#linearGradient5769);fill-opacity:1;stroke:#000080;stroke-width:2.02030515999999993"
       d="M 223.19499,953.86388 C 218.83384,952.26636 214.80179,950.49546 214.23491,949.92856 C 213.66806,949.36169 216.47675,945.50531 220.47649,941.35881 C 243.86447,917.11279 244.15414,878.843 221.13147,854.81521 C 215.41382,848.84801 213.31036,845.31723 214.78185,844.15717 C 220.11637,839.95178 233.45699,837.48335 246.95034,838.20513 C 300.11071,841.04875 323.7202,902.79788 285.75483,939.69598 C 269.64429,955.35365 243.45382,961.28498 223.19501,953.86392 L 223.19499,953.86388 z"
       id="path5761" />
    <text
       xml:space="preserve"
       style="font-size:40px;font-style:normal;font-weight:normal;fill:#000000;fill-opacity:1;stroke:none;stroke-width:1px;stroke-linecap:butt;stroke-linejoin:miter;stroke-opacity:1;font-family:Bitstream Vera Sans"
       x="488.91382"
       y="882.65656"
       id="text5771"><tspan
         sodipodi:role="line"
         id="tspan5773"
         x="488.91382"
         y="882.65656">d3</tspan></text>
    <text
       xml:space="preserve"
       style="font-size:40px;font-style:normal;font-weight:normal;fill:#000000;fill-opacity:1;stroke:none;stroke-width:1px;stroke-linecap:butt;stroke-linejoin:miter;stroke-opacity:1;font-family:Bitstream Vera Sans"
       x="484.87323"
       y="646.28088"
       id="text5775"><tspan
         sodipodi:role="line"
         id="tspan5777"
         x="484.87323"
         y="646.28088">d</tspan></text>
    <text
       xml:space="preserve"
       style="font-size:40px;font-style:normal;font-weight:normal;fill:#000000;fill-opacity:1;stroke:none;stroke-width:1px;stroke-linecap:butt;stroke-linejoin:miter;stroke-opacity:1;font-family:Bitstream Vera Sans"
       x="509.11688"
       y="401.82394"
       id="text5779"><tspan
         sodipodi:role="line"
         id="tspan5781"
         x="509.11688"
         y="401.82394">d7</tspan></text>
    <text
       xml:space="preserve"
       style="font-size:40px;font-style:normal;font-weight:normal;fill:#000000;fill-opacity:1;stroke:none;stroke-width:1px;stroke-linecap:butt;stroke-linejoin:miter;stroke-opacity:1;font-family:Bitstream Vera Sans"
       x="636.39612"
       y="141.20459"
       id="text5783"><tspan
         sodipodi:role="line"
         id="tspan5785"
         x="636.39612"
         y="141.20459">d2</tspan></text>
    <text
       xml:space="preserve"
       style="font-size:40px;font-style:normal;font-weight:normal;fill:#000000;fill-opacity:1;stroke:none;stroke-width:1px;stroke-linecap:butt;stroke-linejoin:miter;stroke-opacity:1;font-family:Bitstream Vera Sans"
       x="511.42856"
       y="640.93359"
       id="text2497"><tspan
         sodipodi:role="line"
         id="tspan2499"
         x="511.42856"
         y="640.93359">6</tspan></text>
  </g>
</svg>
