<?xml version="1.0" encoding="UTF-8" standalone="no"?>
<!-- Created with Inkscape (http://www.inkscape.org/) -->
<svg
   xmlns:dc="http://purl.org/dc/elements/1.1/"
   xmlns:cc="http://creativecommons.org/ns#"
   xmlns:rdf="http://www.w3.org/1999/02/22-rdf-syntax-ns#"
   xmlns:svg="http://www.w3.org/2000/svg"
   xmlns="http://www.w3.org/2000/svg"
   xmlns:sodipodi="http://sodipodi.sourceforge.net/DTD/sodipodi-0.dtd"
   xmlns:inkscape="http://www.inkscape.org/namespaces/inkscape"
   width="323.30313"
   height="214.66423"
   id="svg2"
   sodipodi:version="0.32"
   inkscape:version="0.46"
   sodipodi:docname="d12.svg"
   inkscape:output_extension="org.inkscape.output.svg.inkscape"
   version="1.0"
   inkscape:export-filename="/home/sasan/Cworkspace/ProjectReport/images/d11-2.png"
   inkscape:export-xdpi="73.78965"
   inkscape:export-ydpi="73.78965">
  <defs
     id="defs4">
    <inkscape:perspective
       sodipodi:type="inkscape:persp3d"
       inkscape:vp_x="0 : 526.18109 : 1"
       inkscape:vp_y="0 : 1000 : 0"
       inkscape:vp_z="744.09448 : 526.18109 : 1"
       inkscape:persp3d-origin="372.04724 : 350.78739 : 1"
       id="perspective10" />
  </defs>
  <sodipodi:namedview
     id="base"
     pagecolor="#ffffff"
     bordercolor="#666666"
     borderopacity="1.0"
     gridtolerance="10000"
     guidetolerance="10"
     objecttolerance="10"
     inkscape:pageopacity="1"
     inkscape:pageshadow="2"
     inkscape:zoom="1.6392558"
     inkscape:cx="115.28544"
     inkscape:cy="118.51587"
     inkscape:document-units="px"
     inkscape:current-layer="layer1"
     showgrid="false"
     inkscape:window-width="1600"
     inkscape:window-height="825"
     inkscape:window-x="0"
     inkscape:window-y="25" />
  <metadata
     id="metadata7">
    <rdf:RDF>
      <cc:Work
         rdf:about="">
        <dc:format>image/svg+xml</dc:format>
        <dc:type
           rdf:resource="http://purl.org/dc/dcmitype/StillImage" />
      </cc:Work>
    </rdf:RDF>
  </metadata>
  <g
     inkscape:label="Layer 1"
     inkscape:groupmode="layer"
     id="layer1"
     transform="translate(-71.94849,-28.078995)">
    <rect
       style="fill:#ffffff;fill-opacity:0;fill-rule:evenodd;stroke:#000000;stroke-width:0.84664124;stroke-miterlimit:4;stroke-dasharray:none;stroke-opacity:1"
       id="rect2383"
       width="321.17325"
       height="213.8176"
       x="72.371811"
       y="28.502316"
       inkscape:export-xdpi="63.696686"
       inkscape:export-ydpi="63.696686" />
    <path
       style="fill:#ffffff;fill-opacity:0;fill-rule:evenodd;stroke:none;stroke-width:1.00999999;stroke-miterlimit:4;stroke-dasharray:none;stroke-opacity:1"
       d="M 334.17119,200.57628 C 327.31529,198.36388 323.21235,196.25487 319.20629,192.88397 L 316.12098,190.28786 L 321.13598,183.66209 C 327.30569,175.51083 330.24352,169.80948 333.31549,160.0259 C 335.36388,153.50217 335.67844,150.48308 335.62793,137.82802 C 335.57631,124.89853 335.2662,122.27259 332.98406,115.43632 C 329.82915,105.98589 324.51747,96.294201 319.22336,90.328511 L 315.26174,85.864261 L 318.90809,82.920151 C 320.91355,81.300891 325.50913,78.560191 329.12043,76.829701 C 335.05507,73.985841 336.61414,73.683331 345.3353,73.683331 C 354.44445,73.683331 355.41167,73.894631 362.6287,77.461501 C 376.72993,84.430671 387.73554,98.901871 392.94995,117.33052 C 396.02495,128.19837 396.01788,146.97053 392.93439,158.3346 C 390.01323,169.10037 384.34941,179.45277 377.19834,187.09728 C 364.74427,200.41074 348.97073,205.35207 334.17119,200.57627 L 334.17119,200.57628 z"
       id="path3174" />
    <path
       sodipodi:type="arc"
       style="fill:#000000;fill-opacity:0;fill-rule:nonzero;stroke:#000000;stroke-width:1.01999998;stroke-miterlimit:4;stroke-dasharray:none;stroke-opacity:1"
       id="path3168"
       sodipodi:cx="234.86047"
       sodipodi:cy="156.41582"
       sodipodi:rx="63.134533"
       sodipodi:ry="69.700523"
       d="M 297.99501,156.41582 A 63.134533,69.700523 0 1 1 171.72594,156.41582 A 63.134533,69.700523 0 1 1 297.99501,156.41582 z"
       transform="matrix(0.9204994,0,0,0.7105607,50.213189,15.339656)" />
    <path
       sodipodi:type="arc"
       style="fill:#000000;fill-opacity:0;fill-rule:nonzero;stroke:#000000;stroke-width:1.01999998;stroke-miterlimit:4;stroke-dasharray:none;stroke-opacity:1"
       id="path3170"
       sodipodi:cx="234.86047"
       sodipodi:cy="156.41582"
       sodipodi:rx="63.134533"
       sodipodi:ry="69.700523"
       d="M 297.99501,156.41582 A 63.134533,69.700523 0 1 1 171.72594,156.41582 A 63.134533,69.700523 0 1 1 297.99501,156.41582 z"
       transform="matrix(0.8812809,0,0,0.691084,-18.445706,16.953434)" />
    <text
       xml:space="preserve"
       style="font-size:19.72191048px;font-style:normal;font-weight:normal;fill:#000000;fill-opacity:1;stroke:none;stroke-width:1px;stroke-linecap:butt;stroke-linejoin:miter;stroke-opacity:1;font-family:Bitstream Vera Sans"
       x="132.48872"
       y="64.142235"
       id="text3172"
       transform="scale(1.0001923,0.9998077)"><tspan
         sodipodi:role="line"
         id="tspan3174"
         x="132.48872"
         y="64.142235">A</tspan></text>
    <text
       xml:space="preserve"
       style="font-size:19.72191048px;font-style:normal;font-weight:normal;fill:#000000;fill-opacity:1;stroke:none;stroke-width:1px;stroke-linecap:butt;stroke-linejoin:miter;stroke-opacity:1;font-family:Bitstream Vera Sans"
       x="320.39005"
       y="63.420334"
       id="text3176"
       transform="scale(1.0001923,0.9998077)"><tspan
         sodipodi:role="line"
         id="tspan3178"
         x="320.39005"
         y="63.420334">B</tspan></text>
    <path
       sodipodi:type="arc"
       style="fill:#000000;fill-opacity:0;fill-rule:nonzero;stroke:#000000;stroke-width:1.02999997;stroke-miterlimit:4;stroke-dasharray:none;stroke-opacity:1"
       id="path2388"
       sodipodi:cx="157.38849"
       sodipodi:cy="144.20543"
       sodipodi:rx="54.292931"
       sodipodi:ry="55.207977"
       d="M 211.68142,144.20543 A 54.292931,55.207977 0 1 1 103.09556,144.20543 A 54.292931,55.207977 0 1 1 211.68142,144.20543 z"
       transform="matrix(1.3994911,0,0,0.6249141,4.4979314,81.558394)" />
    <text
       xml:space="preserve"
       style="font-size:20px;font-style:normal;font-weight:normal;fill:#000000;fill-opacity:1;stroke:none;stroke-width:1px;stroke-linecap:butt;stroke-linejoin:miter;stroke-opacity:1;font-family:Bitstream Vera Sans"
       x="304.98108"
       y="214.07169"
       id="text2390"><tspan
         sodipodi:role="line"
         id="tspan2392"
         x="304.98108"
         y="214.07169">C</tspan></text>
    <path
       style="fill:#000000;fill-opacity:0;fill-rule:nonzero;stroke:#000000;stroke-width:0.79304278;stroke-miterlimit:4;stroke-dasharray:none;stroke-opacity:1"
       d="M 137.66895,105.29885 C 137.26615,103.36719 137.10369,99.484411 137.28603,96.147274 C 137.87374,85.392992 142.2115,75.881328 150.34025,67.522633 L 154.83418,62.901566 L 159.28431,67.552732 C 163.85998,72.335079 167.2381,77.885329 169.54024,84.402988 C 171.13145,88.908087 171.73636,99.376459 170.71742,104.77646 L 169.98252,108.67098 L 154.17559,108.66253 L 138.3686,108.65404 L 137.66895,105.29885 z"
       id="path2414"
       transform="translate(71.94849,28.078995)" />
    <path
       style="fill:#000000;fill-opacity:0.59555554;fill-rule:nonzero;stroke:#000000;stroke-width:0.79304277999999984;stroke-miterlimit:4;stroke-dasharray:none;stroke-opacity:1"
       d="M 149.88297,128.9762 C 148.18665,127.20697 145.76854,124.21664 144.50937,122.33102 C 142.05387,118.6539 138.55563,110.98489 139.09002,110.45048 C 139.5606,109.97994 165.37951,110.0513 167.2805,110.52842 C 168.5756,110.85348 168.80637,111.18088 168.48165,112.23253 C 167.17222,116.47368 163.2325,122.49551 158.51262,127.47023 C 153.50955,132.74337 153.49699,132.74555 149.88297,128.97621 L 149.88297,128.9762 z"
       id="path2416"
       transform="translate(71.94849,28.078995)" />
    <path
       style="fill:#000000;fill-opacity:0.59555556;fill-rule:nonzero;stroke:#000000;stroke-width:0.79304278;stroke-miterlimit:4;stroke-dasharray:none;stroke-opacity:1"
       d="M 138.60004,106.67143 C 137.86038,104.87011 138.13093,92.383011 138.98668,88.827965 C 139.43085,86.982616 141.01974,82.956972 142.51743,79.882089 C 144.62394,75.557254 146.33831,73.140054 150.08861,69.206513 L 154.93666,64.121632 L 158.37286,67.78183 C 163.9618,73.734909 167.86113,80.514364 169.47753,87.088548 C 170.28625,90.377431 170.55137,102.10437 169.89278,105.45136 L 169.44252,107.73899 L 154.2405,107.73899 C 140.33601,107.73899 139.00102,107.64787 138.60004,106.67143 z"
       id="path3188"
       transform="translate(71.94849,28.078995)"
       inkscape:export-filename="/home/sasan/Cworkspace/ProjectReport/images/d12-1.png"
       inkscape:export-xdpi="73.78965"
       inkscape:export-ydpi="73.78965" />
  </g>
</svg>
