<?xml version="1.0" encoding="UTF-8" standalone="no"?>
<!-- Created with Inkscape (http://www.inkscape.org/) -->
<svg
   xmlns:dc="http://purl.org/dc/elements/1.1/"
   xmlns:cc="http://creativecommons.org/ns#"
   xmlns:rdf="http://www.w3.org/1999/02/22-rdf-syntax-ns#"
   xmlns:svg="http://www.w3.org/2000/svg"
   xmlns="http://www.w3.org/2000/svg"
   xmlns:sodipodi="http://sodipodi.sourceforge.net/DTD/sodipodi-0.dtd"
   xmlns:inkscape="http://www.inkscape.org/namespaces/inkscape"
   width="781.86792"
   height="285.883"
   id="svg2"
   sodipodi:version="0.32"
   inkscape:version="0.46"
   sodipodi:docname="d7.svg"
   inkscape:output_extension="org.inkscape.output.svg.inkscape"
   version="1.0"
   inkscape:export-filename="/home/sasan/Cworkspace/prover/ProjectReport/images/d6.png"
   inkscape:export-xdpi="73.78965"
   inkscape:export-ydpi="73.78965">
  <defs
     id="defs4">
    <inkscape:perspective
       sodipodi:type="inkscape:persp3d"
       inkscape:vp_x="0 : 526.18109 : 1"
       inkscape:vp_y="0 : 1000 : 0"
       inkscape:vp_z="744.09448 : 526.18109 : 1"
       inkscape:persp3d-origin="372.04724 : 350.78739 : 1"
       id="perspective10" />
  </defs>
  <sodipodi:namedview
     id="base"
     pagecolor="#ffffff"
     bordercolor="#666666"
     borderopacity="1.0"
     gridtolerance="10000"
     guidetolerance="10"
     objecttolerance="10"
     inkscape:pageopacity="1"
     inkscape:pageshadow="2"
     inkscape:zoom="0.9899495"
     inkscape:cx="300.30177"
     inkscape:cy="154.55373"
     inkscape:document-units="px"
     inkscape:current-layer="layer1"
     showgrid="false"
     inkscape:window-width="1600"
     inkscape:window-height="825"
     inkscape:window-x="0"
     inkscape:window-y="25" />
  <metadata
     id="metadata7">
    <rdf:RDF>
      <cc:Work
         rdf:about="">
        <dc:format>image/svg+xml</dc:format>
        <dc:type
           rdf:resource="http://purl.org/dc/dcmitype/StillImage" />
      </cc:Work>
    </rdf:RDF>
  </metadata>
  <g
     inkscape:label="Layer 1"
     inkscape:groupmode="layer"
     id="layer1"
     transform="translate(-50.225287,13.335367)">
    <rect
       style="fill:#ffffff;fill-opacity:0;fill-rule:evenodd;stroke:#000000;stroke-width:0.80996513;stroke-miterlimit:4;stroke-dasharray:none;stroke-opacity:1"
       id="rect2383"
       width="321.20993"
       height="195.67152"
       x="73.363625"
       y="31.514437"
       inkscape:export-xdpi="63.696686"
       inkscape:export-ydpi="63.696686" />
    <path
       style="fill:#ffffff;fill-opacity:0;fill-rule:evenodd;stroke:none;stroke-width:1.00999999;stroke-miterlimit:4;stroke-dasharray:none;stroke-opacity:1"
       d="M 334.17119,197.54582 C 327.31529,195.33342 323.21235,193.22441 319.20629,189.85351 L 316.12098,187.2574 L 321.13598,180.63163 C 327.30569,172.48037 330.24352,166.77902 333.31549,156.99544 C 335.36388,150.47171 335.67844,147.45262 335.62793,134.79756 C 335.57631,121.86807 335.2662,119.24213 332.98406,112.40586 C 329.82915,102.95543 324.51747,93.263743 319.22336,87.298053 L 315.26174,82.833803 L 318.90809,79.889693 C 320.91355,78.270433 325.50913,75.529733 329.12043,73.799243 C 335.05507,70.955383 336.61414,70.652873 345.3353,70.652873 C 354.44445,70.652873 355.41167,70.864173 362.6287,74.431043 C 376.72993,81.400213 387.73554,95.871413 392.94995,114.30006 C 396.02495,125.16791 396.01788,143.94007 392.93439,155.30414 C 390.01323,166.06991 384.34941,176.42231 377.19834,184.06682 C 364.74427,197.38028 348.97073,202.32161 334.17119,197.54581 L 334.17119,197.54582 z"
       id="path3174" />
    <path
       sodipodi:type="arc"
       style="fill:#000000;fill-opacity:0;fill-rule:nonzero;stroke:#000000;stroke-width:1.01999998;stroke-miterlimit:4;stroke-dasharray:none;stroke-opacity:1"
       id="path3168"
       sodipodi:cx="234.86047"
       sodipodi:cy="156.41582"
       sodipodi:rx="63.134533"
       sodipodi:ry="69.700523"
       d="M 297.99501,156.41582 A 63.134533,69.700523 0 1 1 171.72594,156.41582 A 63.134533,69.700523 0 1 1 297.99501,156.41582 z"
       transform="matrix(0.920244,0,0,0.8064428,55.753183,-8.1785708)" />
    <path
       sodipodi:type="arc"
       style="fill:#000000;fill-opacity:0;fill-rule:nonzero;stroke:#000000;stroke-width:1.01999998;stroke-miterlimit:4;stroke-dasharray:none;stroke-opacity:1"
       id="path3170"
       sodipodi:cx="234.86047"
       sodipodi:cy="156.41582"
       sodipodi:rx="63.134533"
       sodipodi:ry="69.700523"
       d="M 297.99501,156.41582 A 63.134533,69.700523 0 1 1 171.72594,156.41582 A 63.134533,69.700523 0 1 1 297.99501,156.41582 z"
       transform="matrix(0.8810364,0,0,0.7843379,-13.497031,-5.6546823)" />
    <text
       xml:space="preserve"
       style="font-size:19.72191048px;font-style:normal;font-weight:normal;fill:#000000;fill-opacity:1;stroke:none;stroke-width:1px;stroke-linecap:butt;stroke-linejoin:miter;stroke-opacity:1;font-family:Bitstream Vera Sans"
       x="137.97797"
       y="65.992393"
       id="text3172"
       transform="scale(1.0001923,0.9998077)"><tspan
         sodipodi:role="line"
         id="tspan3174"
         x="137.97797"
         y="65.992393">A</tspan></text>
    <text
       xml:space="preserve"
       style="font-size:19.72191048px;font-style:normal;font-weight:normal;fill:#000000;fill-opacity:1;stroke:none;stroke-width:1px;stroke-linecap:butt;stroke-linejoin:miter;stroke-opacity:1;font-family:Bitstream Vera Sans"
       x="320.39005"
       y="60.389294"
       id="text3176"
       transform="scale(1.0001923,0.9998077)"><tspan
         sodipodi:role="line"
         id="tspan3178"
         x="320.39005"
         y="60.389294">B</tspan></text>
    <path
       style="fill:#000000;fill-opacity:0;fill-rule:nonzero;stroke:#000000;stroke-width:0.63501811;stroke-miterlimit:4;stroke-dasharray:none;stroke-opacity:1"
       d="M 226.87535,152.1504 C 212.13278,134.28337 210.6124,108.05109 223.20886,88.889325 C 224.89118,86.330165 227.45159,82.893641 228.89864,81.252622 C 231.46578,78.341362 231.56003,78.296041 232.78214,79.38528 C 237.48564,83.577425 244.57138,95.929776 246.63361,103.53216 C 248.23578,109.43851 248.55249,120.64704 247.2942,126.91032 C 245.31045,136.78466 240.59406,146.07907 233.96773,153.17233 C 232.44862,154.79847 230.97002,156.12895 230.68195,156.12895 C 230.39388,156.12895 228.6809,154.3386 226.87536,152.15041 L 226.87535,152.1504 z"
       id="path3180"
       inkscape:export-filename="/home/sasan/Cworkspace/prover/ProjectReport/images/d5.png"
       inkscape:export-xdpi="90"
       inkscape:export-ydpi="90" />
    <text
       xml:space="preserve"
       style="font-size:14px;font-style:normal;font-weight:normal;fill:#000000;fill-opacity:1;stroke:none;stroke-width:1px;stroke-linecap:butt;stroke-linejoin:miter;stroke-opacity:1;font-family:Bitstream Vera Sans"
       x="220.44092"
       y="245.77368"
       id="text2388"><tspan
         sodipodi:role="line"
         id="tspan2390"
         x="220.44092"
         y="245.77368">d1</tspan></text>
    <rect
       style="fill:#000000;fill-opacity:0;fill-rule:nonzero;stroke:#000000;stroke-width:1.01999998;stroke-miterlimit:4;stroke-dasharray:none;stroke-opacity:1"
       id="rect2412"
       width="780.8479"
       height="284.86301"
       x="-21.213203"
       y="-40.904362"
       transform="translate(71.94849,28.078995)" />
    <text
       xml:space="preserve"
       style="font-size:16px;font-style:normal;font-weight:normal;fill:#000000;fill-opacity:1;stroke:none;stroke-width:1px;stroke-linecap:butt;stroke-linejoin:miter;stroke-opacity:1;font-family:Bitstream Vera Sans"
       x="381.83765"
       y="234.86728"
       id="text2414"
       transform="translate(71.94849,28.078995)"><tspan
         sodipodi:role="line"
         id="tspan2416"
         x="381.83765"
         y="234.86728">U</tspan></text>
    <rect
       style="fill:#ffffff;fill-opacity:0;fill-rule:evenodd;stroke:#000000;stroke-width:0.80996513;stroke-miterlimit:4;stroke-dasharray:none;stroke-opacity:1"
       id="rect2418"
       width="321.20993"
       height="195.67152"
       x="443.04736"
       y="33.191395"
       inkscape:export-xdpi="63.696686"
       inkscape:export-ydpi="63.696686" />
    <path
       style="fill:#ffffff;fill-opacity:0;fill-rule:evenodd;stroke:none;stroke-width:1.00999999;stroke-miterlimit:4;stroke-dasharray:none;stroke-opacity:1"
       d="M 703.85494,199.22277 C 696.99904,197.01037 692.8961,194.90136 688.89004,191.53046 L 685.80473,188.93435 L 690.81973,182.30858 C 696.98944,174.15732 699.92727,168.45597 702.99924,158.67239 C 705.04763,152.14866 705.36219,149.12957 705.31168,136.47451 C 705.26006,123.54502 704.94995,120.91908 702.66781,114.08281 C 699.5129,104.63239 694.20122,94.940701 688.90711,88.975011 L 684.94549,84.510761 L 688.59184,81.566651 C 690.5973,79.947391 695.19288,77.206691 698.80418,75.476201 C 704.73882,72.632341 706.29789,72.329831 715.01905,72.329831 C 724.1282,72.329831 725.09542,72.541131 732.31245,76.108001 C 746.41368,83.077171 757.41929,97.548371 762.6337,115.97701 C 765.7087,126.84486 765.70163,145.61702 762.61814,156.98109 C 759.69698,167.74686 754.03316,178.09926 746.88209,185.74377 C 734.42802,199.05723 718.65448,203.99856 703.85494,199.22276 L 703.85494,199.22277 z"
       id="path2420" />
    <path
       sodipodi:type="arc"
       style="fill:#000000;fill-opacity:0;fill-rule:nonzero;stroke:#000000;stroke-width:1.01999998;stroke-miterlimit:4;stroke-dasharray:none;stroke-opacity:1"
       id="path2422"
       sodipodi:cx="234.86047"
       sodipodi:cy="156.41582"
       sodipodi:rx="63.134533"
       sodipodi:ry="69.700523"
       d="M 297.99501,156.41582 A 63.134533,69.700523 0 1 1 171.72594,156.41582 A 63.134533,69.700523 0 1 1 297.99501,156.41582 z"
       transform="matrix(0.920244,0,0,0.8064428,425.43694,-6.5016133)" />
    <path
       sodipodi:type="arc"
       style="fill:#000000;fill-opacity:0;fill-rule:nonzero;stroke:#000000;stroke-width:1.01999998;stroke-miterlimit:4;stroke-dasharray:none;stroke-opacity:1"
       id="path2424"
       sodipodi:cx="234.86047"
       sodipodi:cy="156.41582"
       sodipodi:rx="63.134533"
       sodipodi:ry="69.700523"
       d="M 297.99501,156.41582 A 63.134533,69.700523 0 1 1 171.72594,156.41582 A 63.134533,69.700523 0 1 1 297.99501,156.41582 z"
       transform="matrix(0.8810364,0,0,0.7843379,356.18672,-3.9777251)" />
    <text
       xml:space="preserve"
       style="font-size:19.72191048px;font-style:normal;font-weight:normal;fill:#000000;fill-opacity:1;stroke:none;stroke-width:1px;stroke-linecap:butt;stroke-linejoin:miter;stroke-opacity:1;font-family:Bitstream Vera Sans"
       x="507.59064"
       y="67.66967"
       id="text2426"
       transform="scale(1.0001923,0.9998077)"><tspan
         sodipodi:role="line"
         id="tspan2428"
         x="507.59064"
         y="67.66967">A</tspan></text>
    <text
       xml:space="preserve"
       style="font-size:19.72191048px;font-style:normal;font-weight:normal;fill:#000000;fill-opacity:1;stroke:none;stroke-width:1px;stroke-linecap:butt;stroke-linejoin:miter;stroke-opacity:1;font-family:Bitstream Vera Sans"
       x="690.00269"
       y="62.06657"
       id="text2430"
       transform="scale(1.0001923,0.9998077)"><tspan
         sodipodi:role="line"
         id="tspan2432"
         x="690.00269"
         y="62.06657">B</tspan></text>
    <path
       style="fill:#000000;fill-opacity:0;fill-rule:nonzero;stroke:#000000;stroke-width:0.63501811;stroke-miterlimit:4;stroke-dasharray:none;stroke-opacity:1"
       d="M 596.5591,153.82735 C 581.81653,135.96032 580.29615,109.72804 592.89261,90.566283 C 594.57493,88.007123 597.13534,84.570599 598.58239,82.92958 C 601.14953,80.01832 601.24378,79.972999 602.46589,81.062238 C 607.16939,85.254383 614.25513,97.606734 616.31736,105.20911 C 617.91953,111.11546 618.23624,122.32399 616.97795,128.58727 C 614.9942,138.46161 610.27781,147.75602 603.65148,154.84928 C 602.13237,156.47542 600.65377,157.8059 600.3657,157.8059 C 600.07763,157.8059 598.36465,156.01555 596.55911,153.82736 L 596.5591,153.82735 z"
       id="path2434"
       inkscape:export-filename="/home/sasan/Cworkspace/prover/ProjectReport/images/d5.png"
       inkscape:export-xdpi="90"
       inkscape:export-ydpi="90" />
    <text
       xml:space="preserve"
       style="font-size:16px;font-style:normal;font-weight:normal;fill:#000000;fill-opacity:1;stroke:none;stroke-width:1px;stroke-linecap:butt;stroke-linejoin:miter;stroke-opacity:1;font-family:Bitstream Vera Sans"
       x="591.66699"
       y="245.2735"
       id="text2440"><tspan
         sodipodi:role="line"
         id="tspan2442"
         x="591.66699"
         y="245.2735">d2</tspan></text>
  </g>
</svg>
