<?xml version="1.0" encoding="UTF-8" standalone="no"?>
<!-- Created with Inkscape (http://www.inkscape.org/) -->
<svg
   xmlns:dc="http://purl.org/dc/elements/1.1/"
   xmlns:cc="http://creativecommons.org/ns#"
   xmlns:rdf="http://www.w3.org/1999/02/22-rdf-syntax-ns#"
   xmlns:svg="http://www.w3.org/2000/svg"
   xmlns="http://www.w3.org/2000/svg"
   xmlns:sodipodi="http://sodipodi.sourceforge.net/DTD/sodipodi-0.dtd"
   xmlns:inkscape="http://www.inkscape.org/namespaces/inkscape"
   width="781.86792"
   height="285.883"
   id="svg2"
   sodipodi:version="0.32"
   inkscape:version="0.46"
   sodipodi:docname="d9.svg"
   inkscape:output_extension="org.inkscape.output.svg.inkscape"
   version="1.0"
   inkscape:export-filename="/home/sasan/Cworkspace/ProjectReport/images/d9.png"
   inkscape:export-xdpi="73.78965"
   inkscape:export-ydpi="73.78965">
  <defs
     id="defs4">
    <inkscape:perspective
       sodipodi:type="inkscape:persp3d"
       inkscape:vp_x="0 : 526.18109 : 1"
       inkscape:vp_y="0 : 1000 : 0"
       inkscape:vp_z="744.09448 : 526.18109 : 1"
       inkscape:persp3d-origin="372.04724 : 350.78739 : 1"
       id="perspective10" />
  </defs>
  <sodipodi:namedview
     id="base"
     pagecolor="#ffffff"
     bordercolor="#666666"
     borderopacity="1.0"
     gridtolerance="10000"
     guidetolerance="10"
     objecttolerance="10"
     inkscape:pageopacity="1"
     inkscape:pageshadow="2"
     inkscape:zoom="0.9899495"
     inkscape:cx="300.30177"
     inkscape:cy="154.04865"
     inkscape:document-units="px"
     inkscape:current-layer="layer1"
     showgrid="false"
     inkscape:window-width="1600"
     inkscape:window-height="825"
     inkscape:window-x="0"
     inkscape:window-y="25" />
  <metadata
     id="metadata7">
    <rdf:RDF>
      <cc:Work
         rdf:about="">
        <dc:format>image/svg+xml</dc:format>
        <dc:type
           rdf:resource="http://purl.org/dc/dcmitype/StillImage" />
      </cc:Work>
    </rdf:RDF>
  </metadata>
  <g
     inkscape:label="Layer 1"
     inkscape:groupmode="layer"
     id="layer1"
     transform="translate(-50.225287,13.335367)">
    <rect
       style="fill:#ffffff;fill-opacity:0;fill-rule:evenodd;stroke:#000000;stroke-width:0.65054715;stroke-miterlimit:4;stroke-dasharray:none;stroke-opacity:1"
       id="rect2383"
       width="210.02025"
       height="193.05467"
       x="73.287323"
       y="31.43054"
       inkscape:export-xdpi="63.696686"
       inkscape:export-ydpi="63.696686" />
    <path
       style="fill:#ffffff;fill-opacity:0;fill-rule:evenodd;stroke:none;stroke-width:1.00999999;stroke-miterlimit:4;stroke-dasharray:none;stroke-opacity:1"
       d="M 243.81402,195.24148 C 239.33135,193.05866 236.64868,190.97786 234.02935,187.65204 L 232.01205,185.09065 L 235.29106,178.55349 C 239.32507,170.51124 241.24595,164.88614 243.25453,155.2334 C 244.59385,148.79692 244.79952,145.81821 244.7665,133.33239 C 244.73274,120.57582 244.52998,117.98499 243.03782,111.24015 C 240.97502,101.91611 237.50202,92.354033 234.04051,86.468126 L 231.45024,82.063579 L 233.83438,79.158843 C 235.14563,77.561238 238.15041,74.857191 240.51162,73.149844 C 244.39194,70.344017 245.41132,70.045553 251.11357,70.045553 C 257.06951,70.045553 257.70192,70.254027 262.42071,73.773195 C 271.64067,80.649162 278.83659,94.926829 282.24599,113.10902 C 284.25655,123.83152 284.25192,142.35263 282.23581,153.56472 C 280.32584,164.18651 276.6226,174.40047 271.94694,181.94274 C 263.80395,195.07815 253.49057,199.9534 243.81402,195.24147 L 243.81402,195.24148 z"
       id="path3174" />
    <path
       sodipodi:type="arc"
       style="fill:#000000;fill-opacity:0;fill-rule:nonzero;stroke:#000000;stroke-width:1.01999998;stroke-miterlimit:4;stroke-dasharray:none;stroke-opacity:1"
       id="path3168"
       sodipodi:cx="234.86047"
       sodipodi:cy="156.41582"
       sodipodi:rx="63.134533"
       sodipodi:ry="69.700523"
       d="M 297.99501,156.41582 A 63.134533,69.700523 0 1 1 171.72594,156.41582 A 63.134533,69.700523 0 1 1 297.99501,156.41582 z"
       transform="matrix(0.3991313,0,0,0.5616885,87.220656,46.306099)" />
    <path
       sodipodi:type="arc"
       style="fill:#000000;fill-opacity:0;fill-rule:nonzero;stroke:#000000;stroke-width:1.01999998;stroke-miterlimit:4;stroke-dasharray:none;stroke-opacity:1"
       id="path3170"
       sodipodi:cx="234.86047"
       sodipodi:cy="156.41582"
       sodipodi:rx="63.134533"
       sodipodi:ry="69.700523"
       d="M 297.99501,156.41582 A 63.134533,69.700523 0 1 1 171.72594,156.41582 A 63.134533,69.700523 0 1 1 297.99501,156.41582 z"
       transform="matrix(0.8358444,0,0,1.0431365,-12.816351,-33.409401)" />
    <text
       xml:space="preserve"
       style="font-size:15.84022808px;font-style:normal;font-weight:normal;fill:#000000;fill-opacity:1;stroke:none;stroke-width:1px;stroke-linecap:butt;stroke-linejoin:miter;stroke-opacity:1;font-family:Bitstream Vera Sans"
       x="141.91716"
       y="53.278572"
       id="text3172"
       transform="scale(0.8142228,1.2281651)"><tspan
         sodipodi:role="line"
         id="tspan3174"
         x="141.91716"
         y="53.278572">A</tspan></text>
    <text
       xml:space="preserve"
       style="font-size:15.84022808px;font-style:normal;font-weight:normal;fill:#000000;fill-opacity:1;stroke:none;stroke-width:1px;stroke-linecap:butt;stroke-linejoin:miter;stroke-opacity:1;font-family:Bitstream Vera Sans"
       x="248.67903"
       y="86.918289"
       id="text3176"
       transform="scale(0.8142228,1.2281651)"><tspan
         sodipodi:role="line"
         id="tspan3178"
         x="248.67903"
         y="86.918289">B</tspan></text>
    <rect
       style="fill:#ffffff;fill-opacity:0;fill-rule:evenodd;stroke:#000000;stroke-width:0.65054715;stroke-miterlimit:4;stroke-dasharray:none;stroke-opacity:1"
       id="rect2418"
       width="210.02025"
       height="193.05467"
       x="315.00174"
       y="33.085072"
       inkscape:export-xdpi="63.696686"
       inkscape:export-ydpi="63.696686" />
    <path
       style="fill:#ffffff;fill-opacity:0;fill-rule:evenodd;stroke:none;stroke-width:1.00999999;stroke-miterlimit:4;stroke-dasharray:none;stroke-opacity:1"
       d="M 485.52843,196.896 C 481.04577,194.71319 478.3631,192.63238 475.74377,189.30656 L 473.72647,186.74517 L 477.00548,180.20801 C 481.03949,172.16577 482.96036,166.54066 484.96894,156.88793 C 486.30826,150.45144 486.51394,147.47273 486.48091,134.98691 C 486.44716,122.23034 486.2444,119.63952 484.75224,112.89467 C 482.68943,103.57064 479.21644,94.008564 475.75493,88.122657 L 473.16466,83.71811 L 475.54879,80.813374 C 476.86005,79.215769 479.86482,76.511722 482.22604,74.804375 C 486.10635,71.998548 487.12574,71.700084 492.82799,71.700084 C 498.78392,71.700084 499.41633,71.908558 504.13512,75.427726 C 513.35509,82.303693 520.55101,96.58136 523.9604,114.76354 C 525.97096,125.48605 525.96634,144.00715 523.95023,155.21925 C 522.04025,165.84104 518.33702,176.05499 513.66135,183.59726 C 505.51837,196.73267 495.20498,201.60792 485.52843,196.89599 L 485.52843,196.896 z"
       id="path2420" />
    <path
       sodipodi:type="arc"
       style="fill:#000000;fill-opacity:0;fill-rule:nonzero;stroke:#000000;stroke-width:1.01999998;stroke-miterlimit:4;stroke-dasharray:none;stroke-opacity:1"
       id="path2422"
       sodipodi:cx="234.86047"
       sodipodi:cy="156.41582"
       sodipodi:rx="63.134533"
       sodipodi:ry="69.700523"
       d="M 297.99501,156.41582 A 63.134533,69.700523 0 1 1 171.72594,156.41582 A 63.134533,69.700523 0 1 1 297.99501,156.41582 z"
       transform="matrix(0.6016933,0,0,0.7956577,319.33881,2.8926927)" />
    <path
       sodipodi:type="arc"
       style="fill:#000000;fill-opacity:0;fill-rule:nonzero;stroke:#000000;stroke-width:1.01999998;stroke-miterlimit:4;stroke-dasharray:none;stroke-opacity:1"
       id="path2424"
       sodipodi:cx="234.86047"
       sodipodi:cy="156.41582"
       sodipodi:rx="63.134533"
       sodipodi:ry="69.700523"
       d="M 297.99501,156.41582 A 63.134533,69.700523 0 1 1 171.72594,156.41582 A 63.134533,69.700523 0 1 1 297.99501,156.41582 z"
       transform="matrix(0.5760578,0,0,0.7738484,239.05478,37.275405)" />
    <text
       xml:space="preserve"
       style="font-size:15.84022808px;font-style:normal;font-weight:normal;fill:#000000;fill-opacity:1;stroke:none;stroke-width:1px;stroke-linecap:butt;stroke-linejoin:miter;stroke-opacity:1;font-family:Bitstream Vera Sans"
       x="421.74762"
       y="74.912964"
       id="text2426"
       transform="scale(0.8142228,1.2281651)"><tspan
         sodipodi:role="line"
         id="tspan2428"
         x="421.74762"
         y="74.912964">A</tspan></text>
    <text
       xml:space="preserve"
       style="font-size:12.85086727px;font-style:normal;font-weight:normal;fill:#000000;fill-opacity:1;stroke:none;stroke-width:1px;stroke-linecap:butt;stroke-linejoin:miter;stroke-opacity:1;font-family:Bitstream Vera Sans"
       x="597.99744"
       y="63.403355"
       id="text2404"
       transform="scale(0.8140662,1.2284013)"><tspan
         sodipodi:role="line"
         id="tspan2406"
         x="597.99744"
         y="63.403355">C</tspan></text>
    <rect
       style="fill:#ffffff;fill-opacity:0;fill-rule:evenodd;stroke:#000000;stroke-width:0.65054715;stroke-miterlimit:4;stroke-dasharray:none;stroke-opacity:1"
       id="rect2428"
       width="210.02025"
       height="193.05467"
       x="560.39807"
       y="32.578629"
       inkscape:export-xdpi="63.696686"
       inkscape:export-ydpi="63.696686" />
    <text
       xml:space="preserve"
       style="font-size:16px;font-style:normal;font-weight:normal;fill:#000000;fill-opacity:1;stroke:none;stroke-width:1px;stroke-linecap:butt;stroke-linejoin:miter;stroke-opacity:1;font-family:Bitstream Vera Sans"
       x="606.09149"
       y="257.59872"
       id="text2430"
       transform="translate(50.225287,-13.335367)"><tspan
         sodipodi:role="line"
         id="tspan2432"
         x="606.09149"
         y="257.59872">d3</tspan></text>
    <text
       xml:space="preserve"
       style="font-size:16px;font-style:normal;font-weight:normal;fill:#000000;fill-opacity:1;stroke:none;stroke-width:1px;stroke-linecap:butt;stroke-linejoin:miter;stroke-opacity:1;font-family:Bitstream Vera Sans"
       x="413.88022"
       y="242.24304"
       id="text2434"><tspan
         sodipodi:role="line"
         id="tspan2436"
         x="413.88022"
         y="242.24304">d2</tspan></text>
    <text
       xml:space="preserve"
       style="font-size:16px;font-style:normal;font-weight:normal;fill:#000000;fill-opacity:1;stroke:none;stroke-width:1px;stroke-linecap:butt;stroke-linejoin:miter;stroke-opacity:1;font-family:Bitstream Vera Sans"
       x="127.27922"
       y="254.56827"
       id="text2438"
       transform="translate(50.225287,-13.335367)"><tspan
         sodipodi:role="line"
         id="tspan2440"
         x="127.27922"
         y="254.56827">d1</tspan></text>
    <path
       sodipodi:type="arc"
       style="fill:#000000;fill-opacity:0;fill-rule:nonzero;stroke:#000000;stroke-width:1.01999998;stroke-miterlimit:4;stroke-dasharray:none;stroke-opacity:1"
       id="path2442"
       sodipodi:cx="234.86047"
       sodipodi:cy="156.41582"
       sodipodi:rx="63.134533"
       sodipodi:ry="69.700523"
       d="M 297.99501,156.41582 A 63.134533,69.700523 0 1 1 171.72594,156.41582 A 63.134533,69.700523 0 1 1 297.99501,156.41582 z"
       transform="matrix(0.4233508,0,0,0.5897909,520.52296,10.084311)" />
    <path
       sodipodi:type="arc"
       style="fill:#000000;fill-opacity:0;fill-rule:nonzero;stroke:#000000;stroke-width:1.01999998;stroke-miterlimit:4;stroke-dasharray:none;stroke-opacity:1"
       id="path2444"
       sodipodi:cx="234.86047"
       sodipodi:cy="156.41582"
       sodipodi:rx="63.134533"
       sodipodi:ry="69.700523"
       d="M 297.99501,156.41582 A 63.134533,69.700523 0 1 1 171.72594,156.41582 A 63.134533,69.700523 0 1 1 297.99501,156.41582 z"
       transform="matrix(0.50307,0,0,0.5677974,575.03612,10.49398)" />
    <path
       sodipodi:type="arc"
       style="fill:#000000;fill-opacity:0;fill-rule:nonzero;stroke:#000000;stroke-width:1.01999998;stroke-miterlimit:4;stroke-dasharray:none;stroke-opacity:1"
       id="path2446"
       sodipodi:cx="234.86047"
       sodipodi:cy="156.41582"
       sodipodi:rx="63.134533"
       sodipodi:ry="69.700523"
       d="M 297.99501,156.41582 A 63.134533,69.700523 0 1 1 171.72594,156.41582 A 63.134533,69.700523 0 1 1 297.99501,156.41582 z"
       transform="matrix(0.4558986,0,0,0.4091276,566.92192,108.04342)" />
    <text
       xml:space="preserve"
       style="font-size:15.84022808px;font-style:normal;font-weight:normal;fill:#000000;fill-opacity:1;stroke:none;stroke-width:1px;stroke-linecap:butt;stroke-linejoin:miter;stroke-opacity:1;font-family:Bitstream Vera Sans"
       x="722.49127"
       y="62.36795"
       id="text2448"
       transform="scale(0.8142228,1.2281651)"><tspan
         sodipodi:role="line"
         id="tspan2450"
         x="722.49127"
         y="62.36795">A</tspan></text>
    <text
       xml:space="preserve"
       style="font-size:15.84022808px;font-style:normal;font-weight:normal;fill:#000000;fill-opacity:1;stroke:none;stroke-width:1px;stroke-linecap:butt;stroke-linejoin:miter;stroke-opacity:1;font-family:Bitstream Vera Sans"
       x="876.09399"
       y="53.320572"
       id="text2452"
       transform="scale(0.8142228,1.2281651)"><tspan
         sodipodi:role="line"
         id="tspan2454"
         x="876.09399"
         y="53.320572">B</tspan></text>
    <text
       xml:space="preserve"
       style="font-size:12.85086727px;font-style:normal;font-weight:normal;fill:#000000;fill-opacity:1;stroke:none;stroke-width:1px;stroke-linecap:butt;stroke-linejoin:miter;stroke-opacity:1;font-family:Bitstream Vera Sans"
       x="857.56067"
       y="162.40788"
       id="text2456"
       transform="scale(0.8140662,1.2284013)"><tspan
         sodipodi:role="line"
         id="tspan2458"
         x="857.56067"
         y="162.40788">C</tspan></text>
  </g>
</svg>
